<svg xmlns="http://www.w3.org/2000/svg" viewBox="0 0 64 64" fill="none">
  <!-- Outer gear teeth -->
  <path d="M32 2 L35 8 L38 2 Z" fill="#d32f2f"/>
  <path d="M32 62 L35 56 L29 56 Z" fill="#d32f2f"/>
  <path d="M2 32 L8 29 L2 26 Z" fill="#d32f2f"/>
  <path d="M62 32 L56 35 L62 38 Z" fill="#d32f2f"/>
  <path d="M9.4 9.4 L14 12.5 L12.5 7.5 Z" fill="#d32f2f"/>
  <path d="M54.6 9.4 L51.5 14 L56.5 12.5 Z" fill="#d32f2f"/>
  <path d="M9.4 54.6 L12.5 51.5 L7.5 56.5 Z" fill="#d32f2f"/>
  <path d="M54.6 54.6 L51.5 51.5 L56.5 51.5 Z" fill="#d32f2f"/>
  <!-- Main gear body -->
  <circle cx="32" cy="32" r="24" fill="#3a3a3a" stroke="#6b6b6b" stroke-width="3"/>
  <!-- Inner ring -->
  <circle cx="32" cy="32" r="16" fill="none" stroke="#8a8a8a" stroke-width="2"/>
  <!-- Center hole -->
  <circle cx="32" cy="32" r="8" fill="#1a1a1a" stroke="#6b6b6b" stroke-width="2"/>
  <!-- Gear teeth around edge -->
  <rect x="30" y="5" width="4" height="8" rx="1" fill="#6b6b6b"/>
  <rect x="30" y="51" width="4" height="8" rx="1" fill="#6b6b6b"/>
  <rect x="5" y="30" width="8" height="4" rx="1" fill="#6b6b6b"/>
  <rect x="51" y="30" width="8" height="4" rx="1" fill="#6b6b6b"/>
  <rect x="11" y="11" width="4" height="8" rx="1" fill="#6b6b6b" transform="rotate(-45 13 15)"/>
  <rect x="49" y="11" width="4" height="8" rx="1" fill="#6b6b6b" transform="rotate(45 51 15)"/>
  <rect x="11" y="45" width="4" height="8" rx="1" fill="#6b6b6b" transform="rotate(45 13 49)"/>
  <rect x="49" y="45" width="4" height="8" rx="1" fill="#6b6b6b" transform="rotate(-45 51 49)"/>
  <!-- Spokes -->
  <line x1="32" y1="16" x2="32" y2="24" stroke="#8a8a8a" stroke-width="2"/>
  <line x1="32" y1="40" x2="32" y2="48" stroke="#8a8a8a" stroke-width="2"/>
  <line x1="16" y1="32" x2="24" y2="32" stroke="#8a8a8a" stroke-width="2"/>
  <line x1="40" y1="32" x2="48" y2="32" stroke="#8a8a8a" stroke-width="2"/>
  <!-- Center dot -->
  <circle cx="32" cy="32" r="3" fill="#d32f2f"/>
</svg>
